# xmcd
# 
# Track frame offsets:
#     150
#     15146
#     30580
#     40393
#     54190
#     66900
#     77176
#     91452
#     105744
#     116087
#     126845
#     141050
# 
# Disc length: 2029
# 
# Revision: 2
# Processed by: cddbd v1.5.2PL0 Copyright (c) Steve Scherf et al.
# Submitted via: BonkEnc v1.0.6
# 
DISCID=9807eb0c
DTITLE=Ray Charles - Blues Is My Middle Name
DYEAR=0
DGENRE=
TTITLE0=I'm Wonderin' And Wonderin'
TTITLE1=I Found My Baby There
TTITLE2=All To Myself Alone
TTITLE3=I'm Going Down To The River
TTITLE4=Can Anyone Ask For More
TTITLE5=Ain't That Fine
TTITLE6=Walkin' And Talkin'
TTITLE7=Blues Is My Middle Name
TTITLE8=Now She's Gone
TTITLE9=Hey Now
TTITLE10=Kiss Me Baby
TTITLE11=She's On The Ball
EXTD=
EXTT0=
EXTT1=
EXTT2=
EXTT3=
EXTT4=
EXTT5=
EXTT6=
EXTT7=
EXTT8=
EXTT9=
EXTT10=
EXTT11=
PLAYORDER=
